<svg width="51" height="56" viewBox="0 0 51 56" fill="none" xmlns="http://www.w3.org/2000/svg">
<path d="M25.4184 6.7871C30.3125 6.7871 34.9295 7.83748 39.2696 9.93825C43.6096 12.039 47.234 15.0747 50.1428 19.0454C50.466 19.461 50.5699 19.8303 50.4544 20.1535C50.339 20.4767 50.1428 20.7537 49.8658 20.9846C49.5887 21.2155 49.2655 21.3193 48.8962 21.2963C48.5268 21.2732 48.2036 21.0769 47.9266 20.7076C45.3872 17.1063 42.1206 14.3476 38.1269 12.4315C34.1331 10.5154 29.8969 9.55734 25.4184 9.55734C20.9398 9.55734 16.7383 10.5154 12.8137 12.4315C8.88923 14.3476 5.63419 17.1063 3.04863 20.7076C2.7716 21.1231 2.44841 21.354 2.07904 21.4001C1.70967 21.4463 1.38648 21.354 1.10945 21.1231C0.786259 20.8923 0.590033 20.6037 0.520777 20.2574C0.451521 19.9111 0.555405 19.5533 0.832429 19.1839C3.69502 15.2594 7.28479 12.2122 11.6018 10.0421C15.9187 7.87211 20.5243 6.7871 25.4184 6.7871ZM25.4184 13.2972C31.6514 13.2972 37.0072 15.3749 41.4858 19.5302C45.9643 23.6856 48.2036 28.8336 48.2036 34.9743C48.2036 37.2829 47.3841 39.2105 45.745 40.7572C44.106 42.3039 42.1091 43.0773 39.7544 43.0773C37.3997 43.0773 35.3797 42.3039 33.6945 40.7572C32.0092 39.2105 31.1666 37.2829 31.1666 34.9743C31.1666 33.4507 30.601 32.1695 29.4698 31.1306C28.3387 30.0918 26.9882 29.5724 25.4184 29.5724C23.8485 29.5724 22.4981 30.0918 21.3669 31.1306C20.2357 32.1695 19.6701 33.4507 19.6701 34.9743C19.6701 39.4529 20.9975 43.1927 23.6523 46.1938C26.3071 49.1949 29.7353 51.2957 33.9369 52.4961C34.3524 52.6347 34.6294 52.8655 34.7679 53.1887C34.9064 53.5119 34.9295 53.8582 34.8372 54.2275C34.7448 54.5507 34.5602 54.8278 34.2831 55.0586C34.0061 55.2895 33.6598 55.3587 33.2443 55.2664C28.4425 54.0659 24.518 51.6766 21.4708 48.0984C18.4235 44.5201 16.8998 40.1455 16.8998 34.9743C16.8998 32.6658 17.7309 30.7266 19.3931 29.1568C21.0552 27.587 23.0636 26.8021 25.4184 26.8021C27.7731 26.8021 29.7815 27.587 31.4436 29.1568C33.1058 30.7266 33.9369 32.6658 33.9369 34.9743C33.9369 36.498 34.514 37.7792 35.6683 38.8181C36.8225 39.8569 38.1846 40.3763 39.7544 40.3763C41.3242 40.3763 42.6631 39.8569 43.7712 38.8181C44.8793 37.7792 45.4334 36.498 45.4334 34.9743C45.4334 29.6185 43.4711 25.1169 39.5466 21.4694C35.6221 17.8219 30.9358 15.9982 25.4876 15.9982C20.0395 15.9982 15.3531 17.8219 11.4286 21.4694C7.5041 25.1169 5.54185 29.5954 5.54185 34.9051C5.54185 36.0132 5.64573 37.3983 5.8535 39.0605C6.06127 40.7226 6.5576 42.6618 7.3425 44.878C7.48102 45.2935 7.46947 45.6629 7.30788 45.9861C7.14628 46.3093 6.8808 46.5401 6.51143 46.6786C6.14207 46.8171 5.78424 46.8056 5.43796 46.644C5.09168 46.4824 4.84928 46.2169 4.71077 45.8475C4.01821 44.0469 3.52188 42.2578 3.22177 40.4802C2.92166 38.7026 2.7716 36.8673 2.7716 34.9743C2.7716 28.8336 4.99934 23.6856 9.45482 19.5302C13.9103 15.3749 19.2315 13.2972 25.4184 13.2972ZM25.4184 0C28.3733 0 31.259 0.357823 34.0754 1.07347C36.8918 1.78912 39.6159 2.81642 42.2476 4.15537C42.6631 4.38622 42.9055 4.66325 42.9748 4.98644C43.044 5.30964 43.0094 5.63283 42.8709 5.95603C42.7324 6.27922 42.5015 6.53316 42.1783 6.71784C41.8551 6.90253 41.4627 6.87944 41.001 6.64859C38.5539 5.40198 36.0261 4.44393 33.4174 3.77446C30.8088 3.10498 28.1424 2.77024 25.4184 2.77024C22.7404 2.77024 20.1087 3.0819 17.5232 3.7052C14.9376 4.32851 12.4675 5.30964 10.1127 6.64859C9.74338 6.87944 9.37402 6.93715 9.00465 6.82173C8.63529 6.7063 8.35826 6.4639 8.17358 6.09454C7.98889 5.72517 7.94272 5.39043 8.03507 5.09032C8.12741 4.79021 8.35826 4.52473 8.72763 4.29388C11.3132 2.90876 14.0142 1.84683 16.8306 1.1081C19.647 0.369366 22.5096 0 25.4184 0ZM25.4184 20.015C29.7122 20.015 33.4059 21.4579 36.4993 24.3435C39.5928 27.2292 41.1395 30.7728 41.1395 34.9743C41.1395 35.3899 41.0125 35.7246 40.7586 35.9786C40.5046 36.2325 40.1699 36.3595 39.7544 36.3595C39.385 36.3595 39.0618 36.2325 38.7848 35.9786C38.5078 35.7246 38.3692 35.3899 38.3692 34.9743C38.3692 31.5115 37.088 28.6143 34.5255 26.2827C31.9631 23.9511 28.9273 22.7853 25.4184 22.7853C21.9094 22.7853 18.8967 23.9511 16.3804 26.2827C13.8641 28.6143 12.606 31.5115 12.606 34.9743C12.606 38.7142 13.2524 41.8884 14.5451 44.4971C15.8379 47.1057 17.7309 49.7259 20.2241 52.3576C20.5012 52.6346 20.6397 52.9578 20.6397 53.3272C20.6397 53.6966 20.5012 54.0198 20.2241 54.2968C19.9471 54.5738 19.6239 54.7123 19.2546 54.7123C18.8852 54.7123 18.562 54.5738 18.285 54.2968C15.5609 51.4342 13.4717 48.5139 12.0173 45.5359C10.5629 42.5579 9.83572 39.0374 9.83572 34.9743C9.83572 30.7728 11.3594 27.2292 14.4066 24.3435C17.4539 21.4579 21.1245 20.015 25.4184 20.015ZM25.3491 33.5892C25.7646 33.5892 26.0994 33.7277 26.3533 34.0048C26.6072 34.2818 26.7342 34.605 26.7342 34.9743C26.7342 38.4371 27.9808 41.2766 30.474 43.4928C32.9673 45.709 35.876 46.8171 39.2003 46.8171C39.4773 46.8171 39.8698 46.794 40.3777 46.7479C40.8856 46.7017 41.4165 46.6325 41.9706 46.5401C42.3861 46.4478 42.7439 46.5055 43.044 46.7133C43.3441 46.921 43.5404 47.2327 43.6327 47.6482C43.7251 48.0176 43.6558 48.3408 43.4249 48.6178C43.1941 48.8948 42.894 49.0795 42.5246 49.1718C41.6935 49.4027 40.9664 49.5297 40.343 49.5528C39.7197 49.5758 39.3388 49.5874 39.2003 49.5874C35.0911 49.5874 31.5244 48.2023 28.5002 45.432C25.4761 42.6618 23.964 39.1759 23.964 34.9743C23.964 34.605 24.0909 34.2818 24.3449 34.0048C24.5988 33.7277 24.9336 33.5892 25.3491 33.5892Z" fill="white"/>
</svg>
